<svg xmlns="http://www.w3.org/2000/svg" width="49.266" height="67.988" viewBox="0 0 49.266 67.988">
  <defs>
    <style>
      .cls-1 {
        fill: #fff;
      }
    </style>
  </defs>
  <path id="btn-left" class="cls-1" d="M48.551.651C47.385-.335,46.309.023,45.144.7,39.226,4.1,11.388,24.5,1.346,31.852a3.273,3.273,0,0,0,0,5.29c9.638,6.993,35.594,25.687,43.618,30.17,1.255.717,2.466,1.21,3.631-.09,1.121-1.255.583-2.421-.179-3.631-5.648-9.011-11.207-18.066-16.9-27.032a2.487,2.487,0,0,1,0-3C37.254,23.783,42.9,13.92,48.6,4.1,49.313,2.937,49.672,1.817,48.551.651Z" transform="translate(-0.001 -0.042)"/>
</svg>
