<svg xmlns="http://www.w3.org/2000/svg" width="49.266" height="67.988" viewBox="0 0 49.266 67.988">
  <defs>
    <style>
      .cls-1 {
        fill: #fff;
      }
    </style>
  </defs>
  <path id="btn-right" class="cls-1" d="M.718.651C1.884-.335,2.96.023,4.125.7c5.917,3.407,33.756,23.8,43.8,31.156a3.273,3.273,0,0,1,0,5.29C38.284,44.135,12.329,62.828,4.3,67.311c-1.255.717-2.466,1.21-3.631-.09C-.447,65.966.09,64.8.853,63.59,6.5,54.58,12.06,45.524,17.753,36.559a2.487,2.487,0,0,0,0-3C12.015,23.783,6.366,13.92.673,4.1-.044,2.937-.4,1.817.718.651Z" transform="translate(-0.001 -0.042)"/>
</svg>
