<?xml version="1.0" encoding="utf-8"?>
<!-- Generator: Adobe Illustrator 24.3.0, SVG Export Plug-In . SVG Version: 6.00 Build 0)  -->
<svg version="1.1" id="navIcon" xmlns="http://www.w3.org/2000/svg" xmlns:xlink="http://www.w3.org/1999/xlink" x="0px" y="0px"
	 viewBox="0 0 210.4 211" style="enable-background:new 0 0 210.4 211;" xml:space="preserve">
<style type="text/css">
	.st0{fill:#2D479E;}
</style>
<path id="compass" class="st0" d="M105.1,167.1c-33.9,0.1-61.6-27.5-61.7-61.5C43.3,71.6,70.9,44,105,43.9
	c34-0.1,61.6,27.4,61.7,61.4C166.7,139.4,139.2,167,105.1,167.1z M105,162c31.2,0.1,56.5-25.1,56.6-56.4
	c0.1-31.2-25.1-56.5-56.4-56.6C74,48.9,48.6,74.1,48.5,105.3C48.3,136.5,73.7,161.9,105,162z M105.4,0c3.4,0.2,4.5,2.5,5.3,5.4
	c4.8,18.1,9.7,36.1,14.6,54.2c1.6,5.8,3.2,11.5,4.6,17.4c0.6,2.4,1.7,3.4,4.1,4.1c23.4,6.2,46.8,12.4,70.1,18.8
	c1.8,0.5,3.9,1.3,5.1,2.7c2.7,3,0.7,7-4,8.3c-11.4,3.1-22.9,6.1-34.3,9.2c-11.5,3.1-22.9,6.2-34.4,9.1c-2.6,0.7-3.8,1.9-4.5,4.6
	c-6.2,23.5-12.5,47-18.9,70.5c-0.2,0.8-0.5,1.7-0.7,2.5c-0.8,2.5-2.2,4.2-5,4.2c-3,0-4.6-1.7-5.3-4.4c-2.5-9.4-5.1-18.8-7.6-28.2
	c-3.8-14.2-7.7-28.4-11.4-42.7c-0.7-2.5-1.9-3.6-4.3-4.3C54.4,124.7,30,117.8,5.6,111c-3.1-0.9-5.8-2-5.6-5.9c0.2-3.8,2.9-4.7,6-5.5
	c23.1-5.3,46.2-10.8,69.3-16c3-0.7,4.1-2,4.8-4.7C86.6,54.4,93.2,30,99.7,5.5C100.5,2.4,101.8,0,105.4,0z M105,95.8
	c-5.4,0-9.7,4.4-9.7,9.7s4.4,9.7,9.7,9.7s9.7-4.4,9.7-9.7S110.4,95.8,105,95.8z M43.2,49.7c0-4.1,4-6.9,7.4-5
	c7.6,4.2,15.1,8.7,22.6,13.2c0.6,0.4,0.9,1.7,0.8,2.5c-0.2,1.5-0.8,2.9-1.1,4.3c-2.6,9.9-2.6,9.9-12.6,11.6c-0.9,0.2-2.6-0.4-3-1.1
	c-4.6-7.7-9-15.5-13.4-23.3C43.5,51.1,43.4,50.2,43.2,49.7z M57.9,136.4c4.3,1.2,8.1,2.5,12,3.3c3,0.6,4.2,2.2,4.9,5.1
	c1.7,6.9,1.8,6.8-4.4,10.3c-6.1,3.4-12.2,6.8-18.2,10.2c-2.6,1.5-5.2,2.1-7.5-0.4c-2.2-2.4-1.6-5,0-7.5
	C49.1,150.5,53.4,143.6,57.9,136.4z M135.7,57.9c7.4-4.3,14.6-8.4,21.7-12.5c2.5-1.4,4.8-1.4,6.8,0.7c1.9,2,2,4.2,0.6,6.5
	c-4.3,7.3-8.5,14.7-12.9,22.3c-3.8-1-7.6-1.9-11.4-3.1c-0.7-0.2-1.5-1.3-1.7-2.1C137.7,65.9,136.8,62,135.7,57.9z M167,160.3
	c0,4.1-4,6.8-7.5,4.9c-6.8-3.7-13.5-7.6-20.1-11.6c-0.7-0.4-1-2-1.1-3c0-1.1,0.5-2.2,0.8-3.2c2.6-9.3,2.5-9.4,11.9-11.3
	c0.9-0.2,2.5,0.1,2.8,0.7c4.3,7.2,8.4,14.4,12.6,21.7C166.8,159.1,166.9,159.9,167,160.3z"/>
</svg>
